<svg width="32" height="32" viewBox="0 0 32 32" fill="none" xmlns="http://www.w3.org/2000/svg">
<path fill-rule="evenodd" clip-rule="evenodd" d="M21.6939 16.4092C20.1872 16.4092 18.7605 16.7158 17.5605 17.2225C21.7739 18.4492 24.7472 21.3692 24.8139 24.7692C27.0006 24.4758 29.3472 23.6625 29.3472 21.3958C29.3472 18.6892 25.8405 16.4092 21.6939 16.4092Z" fill="#9C9A9A"/>
<path fill-rule="evenodd" clip-rule="evenodd" d="M21.6536 14.4896H21.6936C24.5336 14.4896 26.8403 12.183 26.8403 9.34296C26.8403 6.50296 24.5336 4.19629 21.6936 4.19629C21.1336 4.19629 20.6003 4.28962 20.0936 4.44962C21.0136 5.80962 21.5469 7.44962 21.5469 9.20962C21.5469 11.063 20.9469 12.783 19.9336 14.1829C20.4669 14.3829 21.0536 14.4896 21.6536 14.4896Z" fill="#9C9A9A"/>
<path fill-rule="evenodd" clip-rule="evenodd" d="M13.0647 18.5947C7.782 18.5947 3.31934 21.4814 3.31934 24.8987C3.31934 28.8174 8.88067 29.2707 13.0647 29.2707C15.4753 29.2707 22.8099 29.2707 22.8099 24.8721C22.8099 21.4694 18.3473 18.5947 13.0647 18.5947Z" fill="#9C9A9A"/>
<path fill-rule="evenodd" clip-rule="evenodd" d="M13.0232 15.7005H13.0632C16.6405 15.7005 19.5498 12.7912 19.5498 9.21518C19.5498 5.63785 16.6405 2.72852 13.0632 2.72852C9.48848 2.72852 6.57915 5.63785 6.57915 9.21252C6.57248 10.9392 7.23782 12.5645 8.45515 13.7898C9.67248 15.0151 11.2938 15.6938 13.0232 15.7005Z" fill="#9C9A9A"/>
</svg>
