<svg width="32" height="32" viewBox="0 0 32 32" fill="none" xmlns="http://www.w3.org/2000/svg">
<path fill-rule="evenodd" clip-rule="evenodd" d="M31.1291 22.0922C30.1558 19.0442 27.5758 17.3002 24.0358 17.3002H24.0104C22.5678 17.2869 21.2784 17.5776 20.1904 18.1336C23.2264 19.1082 25.4771 21.2709 26.5131 24.3309C28.1571 24.1029 29.5864 23.5976 30.8504 22.8256L31.2678 22.5602L31.1291 22.0922Z" fill="#9C9A9A"/>
<path fill-rule="evenodd" clip-rule="evenodd" d="M21.7207 14.9975C22.4034 15.3775 23.1754 15.5921 24.01 15.5921C26.6274 15.5921 28.7514 13.4668 28.7514 10.8494C28.7514 8.24545 26.6274 6.12012 24.01 6.12012C23.4914 6.12012 22.998 6.20945 22.53 6.36012C23.2127 7.46145 23.6047 8.76278 23.6047 10.1414C23.6047 12.0134 22.9087 13.7081 21.7207 14.9975Z" fill="#9C9A9A"/>
<path fill-rule="evenodd" clip-rule="evenodd" d="M12.4141 18.1091C11.3514 17.5785 10.0994 17.2998 8.68342 17.2998H8.63275C5.09275 17.2998 2.51275 19.0451 1.55141 22.0918L1.39941 22.5598L1.81675 22.8251C3.01808 23.5598 4.43542 24.0518 6.01542 24.3051C7.06475 21.2331 9.35408 19.0571 12.4141 18.1091Z" fill="#9C9A9A"/>
<path fill-rule="evenodd" clip-rule="evenodd" d="M8.65771 15.5922C9.49237 15.5922 10.263 15.3775 10.947 14.9975C9.7577 13.7082 9.06171 12.0135 9.06171 10.1415C9.06171 8.76412 9.45371 7.46145 10.1377 6.36145C9.6697 6.20945 9.17637 6.12012 8.65771 6.12012C6.04037 6.12012 3.91504 8.24545 3.91504 10.8495C3.91504 13.4682 6.04037 15.5922 8.65771 15.5922Z" fill="#9C9A9A"/>
<path fill-rule="evenodd" clip-rule="evenodd" d="M16.2877 18.8047C16.2663 18.8047 16.2463 18.8047 16.2263 18.8047C11.6743 18.8047 8.35568 21.042 7.12101 24.9474L6.97168 25.4194L7.39435 25.678C9.80501 27.1474 12.685 27.862 16.1983 27.862H16.3117C19.8277 27.862 22.709 27.1474 25.1197 25.678L25.5437 25.4194L25.3943 24.9474C24.1583 21.042 20.841 18.8047 16.2877 18.8047Z" fill="#9C9A9A"/>
<path fill-rule="evenodd" clip-rule="evenodd" d="M16.3339 16.1577C19.6486 16.1577 22.3446 13.4617 22.3446 10.147C22.3446 6.83369 19.6486 4.1377 16.3339 4.1377C13.0192 4.1377 10.3232 6.83369 10.3232 10.147C10.3232 13.4617 13.0192 16.1577 16.3339 16.1577Z" fill="#9C9A9A"/>
</svg>
