<svg width="32" height="32" viewBox="0 0 32 32" fill="none" xmlns="http://www.w3.org/2000/svg">
<path d="M20.8662 2.667C21.4323 2.66567 21.8799 3.10545 21.8812 3.69182L21.8825 4.69132C25.5554 4.97917 27.9816 7.48192 27.9855 11.32L28 22.5544C28.0053 26.7389 25.3763 29.3137 21.1624 29.3203L10.8692 29.3337C6.6816 29.339 4.01976 26.703 4.0145 22.5064L4.00001 11.404C3.99475 7.54056 6.33538 5.04447 10.0082 4.70731L10.0069 3.70781C10.0056 3.12144 10.44 2.68032 11.0193 2.68032C11.5985 2.67899 12.0329 3.11877 12.0342 3.70515L12.0356 4.63801L19.8552 4.62735L19.8539 3.69448C19.8526 3.10811 20.287 2.66833 20.8662 2.667ZM21.4033 21.5895H21.3902C20.7846 21.6042 20.2988 22.1119 20.312 22.725C20.3133 23.338 20.8017 23.8431 21.4073 23.8564C22.0247 23.8551 22.5249 23.3473 22.5236 22.721C22.5236 22.0946 22.022 21.5895 21.4033 21.5895ZM10.5559 21.5909C9.95031 21.6175 9.4764 22.1253 9.47771 22.7383C9.50536 23.3513 10.0056 23.8311 10.6112 23.8031C11.2049 23.7764 11.6775 23.2687 11.6498 22.6557C11.6367 22.056 11.1483 21.5895 10.5559 21.5909ZM15.9796 21.5842C15.374 21.6122 14.9014 22.1186 14.9014 22.7316C14.9291 23.3446 15.4293 23.8231 16.0349 23.7964C16.6273 23.7684 17.1012 23.262 17.0736 22.6477C17.0604 22.0493 16.572 21.5829 15.9796 21.5842ZM10.5493 16.7933C9.94373 16.8199 9.47113 17.3277 9.47244 17.9407C9.49878 18.5537 10.0003 19.0335 10.6059 19.0055C11.1983 18.9788 11.6709 18.4711 11.6433 17.8581C11.6301 17.2584 11.143 16.7919 10.5493 16.7933ZM15.9743 16.7466C15.3688 16.7733 14.8949 17.281 14.8962 17.894C14.9225 18.5071 15.4241 18.9855 16.0296 18.9588C16.622 18.9309 17.0946 18.4244 17.0683 17.8114C17.0538 17.2117 16.5667 16.7453 15.9743 16.7466ZM21.3981 16.7533C20.7925 16.7666 20.3186 17.2597 20.3199 17.8727V17.8874C20.3331 18.5004 20.8333 18.9655 21.4402 18.9522C22.0326 18.9375 22.5052 18.4298 22.492 17.8167C22.4644 17.2304 21.9891 16.7519 21.3981 16.7533ZM19.8578 6.67966L12.0382 6.69032L12.0395 7.76844C12.0395 8.34282 11.6064 8.79593 11.0272 8.79593C10.4479 8.79726 10.0122 8.34549 10.0122 7.77111L10.0109 6.74496C7.44382 7.00216 6.02338 8.51074 6.02732 11.4013L6.02865 11.8158L25.9595 11.7891V11.3227C25.9029 8.45743 24.4654 6.95418 21.8851 6.7303L21.8865 7.75645C21.8865 8.3295 21.4402 8.78394 20.8741 8.78394C20.2949 8.78527 19.8591 8.33216 19.8591 7.75911L19.8578 6.67966Z" fill="#9C9A9A"/>
</svg>
