<svg width="32" height="32" viewBox="0 0 32 32" fill="none" xmlns="http://www.w3.org/2000/svg">
<path d="M12.1794 27.6981V23.6211C12.1794 22.5804 13.0292 21.7367 14.0776 21.7367H17.9098C18.4133 21.7367 18.8961 21.9353 19.2521 22.2887C19.608 22.6421 19.808 23.1214 19.808 23.6211V27.6981C19.8049 28.1308 19.9758 28.5468 20.2828 28.8539C20.5899 29.161 21.0077 29.3337 21.4436 29.3337H24.0581C25.2792 29.3368 26.4513 28.8574 27.3159 28.0014C28.1805 27.1454 28.6663 25.983 28.6663 24.7708V13.1561C28.6663 12.1769 28.2291 11.2481 27.4725 10.6199L18.5784 3.56815C17.0312 2.33174 14.8145 2.37166 13.3135 3.66296L4.62236 10.6199C3.83 11.2296 3.35641 12.1612 3.33301 13.1561V24.7589C3.33301 27.2855 5.39618 29.3337 7.94124 29.3337H10.4961C11.4013 29.3337 12.137 28.6086 12.1436 27.71L12.1794 27.6981Z" fill="#7128D0"/>
</svg>
