<svg width="32" height="32" viewBox="0 0 32 32" fill="none" xmlns="http://www.w3.org/2000/svg">
<path d="M16.027 2.66699C23.6003 2.66699 29.3337 8.87631 29.3337 15.9803C29.3337 24.2193 22.6137 29.3337 16.0003 29.3337C13.8137 29.3337 11.387 28.7461 9.44032 27.5977C8.76032 27.1838 8.18699 26.8766 7.45366 27.117L4.76033 27.9182C4.08033 28.1319 3.46699 27.5977 3.66699 26.8766L4.56033 23.8855C4.70699 23.4715 4.68033 23.0309 4.46699 22.6837C3.32033 20.5739 2.66699 18.2637 2.66699 16.0204C2.66699 8.99649 8.28033 2.66699 16.027 2.66699ZM22.1203 14.3245C21.1737 14.3245 20.4137 15.0856 20.4137 16.0337C20.4137 16.9684 21.1737 17.7429 22.1203 17.7429C23.067 17.7429 23.827 16.9684 23.827 16.0337C23.827 15.0856 23.067 14.3245 22.1203 14.3245ZM15.9737 14.3245C15.0403 14.3111 14.267 15.0856 14.267 16.0204C14.267 16.9684 15.027 17.7296 15.9737 17.7429C16.9203 17.7429 17.6803 16.9684 17.6803 16.0337C17.6803 15.0856 16.9203 14.3245 15.9737 14.3245ZM9.82699 14.3245C8.88032 14.3245 8.12033 15.0856 8.12033 16.0337C8.12033 16.9684 8.89366 17.7429 9.82699 17.7429C10.7737 17.7296 11.5337 16.9684 11.5337 16.0337C11.5337 15.0856 10.7737 14.3245 9.82699 14.3245Z" fill="#9C9A9A"/>
</svg>
