<svg width="96" height="93" viewBox="0 0 96 93" fill="none" xmlns="http://www.w3.org/2000/svg">
<path fill-rule="evenodd" clip-rule="evenodd" d="M47.9508 4.65039C42.8338 4.65039 38.6842 8.8 38.6842 13.917C38.6814 15.691 39.1904 17.4281 40.15 18.9201C36.9377 20.1652 34.1635 22.3449 33.0424 25.5293C31.6371 23.0445 30.8344 20.1744 30.8344 17.1162C30.8344 7.66309 38.4977 0 47.9506 0C57.4035 0 65.0668 7.66328 65.0668 17.1162C65.0668 20.1744 64.2639 23.0445 62.8588 25.5293C61.7377 22.3449 58.9637 20.1652 55.7512 18.9201C56.7109 17.4281 57.2199 15.691 57.2172 13.917C57.2172 8.8 53.0676 4.65039 47.9506 4.65039H47.9508ZM78.7826 60.6162C82.6067 60.6162 85.7066 63.7162 85.7066 67.5402C85.7066 71.3643 82.6067 74.4643 78.7826 74.4643C74.9586 74.4643 71.8586 71.3643 71.8586 67.5402C71.8586 63.7162 74.9586 60.6162 78.7826 60.6162ZM65.7053 81.7857C68.8455 85.4998 73.5383 87.859 78.7828 87.859C84.0273 87.859 88.7201 85.4998 91.8604 81.7857C91.6037 78.1256 88.7207 75.6813 84.9566 74.4508C81.4404 77.5941 76.1252 77.5943 72.609 74.4508C68.8445 75.6816 65.9619 78.1256 65.7053 81.7857ZM78.7828 53.6209C69.3281 53.6209 61.6637 61.2854 61.6637 70.7398C61.6637 73.7986 62.4668 76.6695 63.8723 79.1547C64.9934 75.9695 67.7682 73.7897 70.9813 72.5443C70.0213 71.0521 69.5122 69.3146 69.5148 67.5402C69.5148 62.4227 73.6648 58.2725 78.7824 58.2725C83.9 58.2725 88.0502 62.4227 88.0502 67.5402C88.0529 69.3146 87.5438 71.0521 86.5838 72.5443C89.7969 73.7897 92.5717 75.9697 93.693 79.1549C95.0984 76.6697 95.9016 73.7988 95.9016 70.74C95.9016 61.2854 88.2371 53.6211 78.7826 53.6211L78.7828 53.6209ZM47.9508 6.99414C44.1273 6.99414 41.0279 10.0938 41.0279 13.917C41.0279 17.7402 44.1273 20.8398 47.9508 20.84C51.774 20.84 54.8736 17.7404 54.8736 13.917C54.8736 10.0936 51.774 6.99414 47.9508 6.99414ZM47.9508 23.1838C45.5797 23.1838 43.4168 22.2924 41.7777 20.8268C38.0143 22.057 35.132 24.501 34.8754 28.1604C38.0152 31.8738 42.7072 34.2326 47.9508 34.2326C53.1943 34.2326 57.8865 31.8738 61.0262 28.1604C60.7697 24.501 57.8873 22.057 54.1238 20.8268C52.4848 22.2922 50.3219 23.1836 47.9508 23.1838ZM47.9508 86.2203H57.6065C57.9173 86.2203 58.2153 86.0969 58.4351 85.8771C58.6549 85.6573 58.7783 85.3592 58.7783 85.0484C58.7783 84.7376 58.6549 84.4396 58.4351 84.2198C58.2153 84 57.9173 83.8766 57.6065 83.8766H38.2949C37.9841 83.8766 37.6861 84 37.4663 84.2198C37.2465 84.4396 37.123 84.7376 37.123 85.0484C37.123 85.3592 37.2465 85.6573 37.4663 85.8771C37.6861 86.0969 37.9841 86.2203 38.2949 86.2203H47.9506H47.9508ZM80.0029 46.3494C80.1583 46.6153 80.4126 46.809 80.7102 46.8882C81.0078 46.9674 81.3246 46.9258 81.5917 46.7723C81.8587 46.6189 82.0542 46.3661 82.1356 46.069C82.217 45.772 82.1777 45.4549 82.0262 45.1867L71.9418 27.7201C71.8661 27.5861 71.7646 27.4684 71.6432 27.3737C71.5217 27.2791 71.3828 27.2095 71.2343 27.1688C71.0858 27.1281 70.9308 27.1172 70.7781 27.1367C70.6254 27.1562 70.478 27.2057 70.3446 27.2824C70.2111 27.3591 70.0941 27.4615 70.0004 27.5836C69.9066 27.7057 69.838 27.8452 69.7984 27.9939C69.7588 28.1427 69.749 28.2978 69.7697 28.4504C69.7903 28.6029 69.8409 28.7499 69.9186 28.8828L80.0029 46.3494ZM77.9631 51.2959C77.1014 51.3316 76.2541 51.4229 75.425 51.567L74.257 49.5438C72.7789 46.9643 72.9154 43.8658 74.4727 41.4578L75.8727 43.8828C75.827 44.0132 75.7862 44.1453 75.7504 44.2787C75.399 45.5904 75.5324 47.0297 76.2315 48.2939C76.2713 48.351 76.3061 48.4119 76.3352 48.4758L77.9633 51.2959H77.9631ZM81.9529 40.3725L80.5531 37.9479C83.408 37.8023 86.183 39.2387 87.6654 41.8031L91.8959 49.135C93.2367 51.475 93.2498 54.2305 92.0787 56.5295C91.4882 55.9768 90.864 55.4612 90.2098 54.9857C90.2849 54.7943 90.3493 54.5988 90.4027 54.4002C90.7541 53.0885 90.6207 51.6492 89.9217 50.385C89.8818 50.3276 89.8471 50.2667 89.818 50.2031L85.6795 43.0352C85.6666 43.0156 85.6541 42.9957 85.6422 42.9752C84.8274 41.5668 83.4633 40.6572 81.9529 40.3725ZM65.9324 30.4582C65.9453 30.4777 65.9578 30.4977 65.9697 30.5182C66.7846 31.9268 68.1486 32.8361 69.6592 33.1207L71.059 35.5451C68.2041 35.6906 65.4291 34.2545 63.9465 31.6898L62.7973 29.6949C63.3464 29.048 63.8527 28.3659 64.3131 27.6531L65.9324 30.458V30.4582ZM67.3141 15.1691C67.2339 14.3619 67.1032 13.5605 66.9229 12.7695C69.4262 12.9367 71.8391 14.342 73.1248 16.6176L77.3553 23.9449C78.8355 26.5043 78.692 29.6363 77.1391 32.0344L75.7397 29.6105C76.2496 28.1549 76.1449 26.523 75.3318 25.1168L71.142 17.8598C71.1126 17.8161 71.0861 17.7706 71.0627 17.7234C70.3176 16.474 69.1336 15.6318 67.8176 15.2791C67.6516 15.2346 67.4834 15.198 67.3141 15.1691ZM58.1654 79.6469H61.4738C61.0832 78.8889 60.743 78.106 60.4557 77.3031H58.1654C55.2051 77.3031 52.5725 78.9918 51.2688 81.5328H54.0748C55.0732 80.3732 56.5445 79.6469 58.1654 79.6469ZM51.2688 88.5641C52.5727 91.1051 55.2051 92.7936 58.1654 92.7936H66.6262C69.2717 92.7936 71.6512 91.4473 73.0609 89.3475C72.2839 89.1091 71.5227 88.8218 70.7818 88.4873C69.7814 89.6926 68.2811 90.4498 66.6262 90.4498H58.1654C56.5439 90.4498 55.0738 89.7236 54.0746 88.5641H51.2686H51.2688ZM17.1191 60.6164C13.2951 60.6164 10.1951 63.7164 10.1951 67.5404C10.1951 71.3645 13.2951 74.4645 17.1191 74.4645C20.9432 74.4645 24.0432 71.3645 24.0432 67.5404C24.0432 63.7164 20.9432 60.6164 17.1191 60.6164ZM30.1965 81.7859C27.0563 85.5 22.3635 87.8592 17.1189 87.8592C11.8744 87.8592 7.18164 85.5 4.04141 81.7859C4.29805 78.1258 7.18086 75.6814 10.9451 74.451C14.4613 77.5943 19.7766 77.5945 23.2928 74.451C27.0572 75.6818 29.9398 78.1258 30.1965 81.7859ZM17.1189 53.6211C26.5736 53.6211 34.2381 61.2855 34.2381 70.74C34.2381 73.7988 33.435 76.6697 32.0295 79.1549C30.9084 75.9697 28.1336 73.7898 24.9205 72.5445C25.8805 71.0523 26.3896 69.3148 26.3869 67.5404C26.3869 62.4229 22.2367 58.2727 17.1191 58.2727C12.0016 58.2727 7.85137 62.4229 7.85137 67.5404C7.84862 69.3148 8.35777 71.0523 9.31777 72.5445C6.10469 73.7898 3.32988 75.9699 2.20859 79.1551C0.803125 76.6699 0 73.799 0 70.7402C0 61.2856 7.66445 53.6211 17.1189 53.6211ZM15.8986 46.3494C15.7432 46.6153 15.489 46.809 15.1914 46.8882C14.8938 46.9674 14.5769 46.9258 14.3099 46.7723C14.0429 46.6189 13.8473 46.3661 13.7659 46.069C13.6846 45.772 13.7239 45.4549 13.8754 45.1867L23.9598 27.7201C24.0355 27.5861 24.137 27.4684 24.2584 27.3737C24.3798 27.2791 24.5188 27.2095 24.6673 27.1688C24.8157 27.1281 24.9708 27.1172 25.1235 27.1367C25.2762 27.1562 25.4235 27.2057 25.557 27.2824C25.6905 27.3591 25.8074 27.4615 25.9012 27.5836C25.9949 27.7057 26.0636 27.8452 26.1032 27.9939C26.1428 28.1427 26.1525 28.2978 26.1319 28.4504C26.1113 28.6029 26.0607 28.7499 25.983 28.8828L15.8986 46.3494ZM17.9385 51.2959C18.8002 51.3316 19.6475 51.4229 20.4766 51.567L21.6445 49.5438C23.1227 46.9643 22.9861 43.8658 21.4289 41.4578L20.0289 43.8828C20.0746 44.0133 20.1154 44.1453 20.1512 44.2787C20.5025 45.5904 20.3691 47.0297 19.6701 48.2939C19.6302 48.3514 19.5955 48.4122 19.5664 48.4758L17.9385 51.2959ZM13.9486 40.3725L15.3484 37.9479C12.4936 37.8023 9.71856 39.2387 8.23594 41.8031L4.00566 49.135C2.66484 51.475 2.65176 54.2305 3.82285 56.5295C4.41336 55.9768 5.03753 55.4612 5.6918 54.9857C5.61664 54.7943 5.55222 54.5988 5.49883 54.4002C5.14746 53.0885 5.28086 51.6492 5.97988 50.385C6.01953 50.3279 6.0543 50.2672 6.08359 50.2031L10.2221 43.0352C10.235 43.0156 10.2475 42.9957 10.2594 42.9752C11.0742 41.5668 12.4383 40.6572 13.9486 40.3725ZM29.9691 30.4582C29.9563 30.4777 29.9438 30.4977 29.9318 30.5182C29.117 31.9268 27.7529 32.8361 26.2424 33.1207L24.8426 35.5451C27.6977 35.6906 30.4727 34.2545 31.9551 31.6898L33.1043 29.6949C32.5552 29.048 32.0488 28.3659 31.5885 27.6531L29.9691 30.458V30.4582ZM28.5875 15.1691C28.6676 14.3619 28.7983 13.5604 28.9787 12.7695C26.4754 12.9367 24.0625 14.342 22.7768 16.6176L18.5463 23.9449C17.0658 26.5043 17.2096 29.6363 18.7625 32.0344L20.1619 29.6105C19.652 28.1549 19.7566 26.523 20.5697 25.1168L24.7596 17.8598C24.7889 17.8164 24.8154 17.7707 24.8389 17.7234C25.584 16.474 26.768 15.6318 28.084 15.2791C28.25 15.2346 28.418 15.198 28.5873 15.1691H28.5875ZM37.7361 79.6469H34.4277C34.8184 78.8889 35.1585 78.106 35.4459 77.3031H37.7361C40.6965 77.3031 43.3291 78.9918 44.6328 81.5328H41.8268C40.8283 80.3732 39.3568 79.6469 37.7359 79.6469H37.7361ZM44.6328 88.5641C43.3289 91.1051 40.6965 92.7936 37.7361 92.7936H29.2754C26.6299 92.7936 24.2504 91.4473 22.8406 89.3475C23.6177 89.109 24.3789 88.8217 25.1197 88.4873C26.1201 89.6926 27.6205 90.4498 29.2754 90.4498H37.7361C39.3576 90.4498 40.8277 89.7236 41.827 88.5641H44.633H44.6328Z" fill="white"/>
</svg>
