<svg width="28" height="28" viewBox="0 0 28 28" fill="none" xmlns="http://www.w3.org/2000/svg">
<path d="M24.9359 19.46C24.3322 20.8009 24.0413 21.4003 23.2647 22.5837C22.1775 24.2375 20.6441 26.3025 18.7497 26.3156C17.0631 26.3309 16.6278 25.2153 14.3375 25.235C12.0494 25.2459 11.5725 26.3375 9.88376 26.32C7.9872 26.3025 6.53688 24.4431 5.4497 22.7916C2.40907 18.1606 2.08751 12.7312 3.96657 9.84375C5.29657 7.79625 7.39876 6.59312 9.37407 6.59312C11.3866 6.59312 12.6509 7.69781 14.3134 7.69781C15.9278 7.69781 16.91 6.59094 19.2375 6.59094C20.9963 6.59094 22.8556 7.54906 24.1856 9.20281C19.8369 11.5872 20.5434 17.7975 24.9359 19.46ZM17.47 4.7425C18.3166 3.65531 18.9597 2.12187 18.7256 0.559998C17.3453 0.65406 15.7309 1.53562 14.7881 2.6775C13.9328 3.71875 13.2241 5.26312 13.4997 6.75718C15.0069 6.80531 16.5666 5.90625 17.47 4.7425Z" fill="#110742"/>
</svg>
